  0
SECTION
  2
HEADER
  9
$ACADVER
  1
AC1018
  9
$ACADMAINTVER
 70
     0
  9
$DWGCODEPAGE
  3
ANSI_932
  9
$INSBASE
 10
0.0
 20
0.0
 30
0.0
  9
$EXTMIN
 10
1.000000000000000E+20
 20
1.000000000000000E+20
 30
1.000000000000000E+20
  9
$EXTMAX
 10
-1.000000000000000E+20
 20
-1.000000000000000E+20
 30
-1.000000000000000E+20
  9
$LIMMIN
 10
0.0
 20
0.0
  9
$LIMMAX
 10
12.0
 20
9.0
  9
$ORTHOMODE
 70
     0
  9
$REGENMODE
 70
     1
  9
$FILLMODE
 70
     1
  9
$QTEXTMODE
 70
     0
  9
$MIRRTEXT
 70
     1
  9
$LTSCALE
 40
1.0
  9
$ATTMODE
 70
     1
  9
$TEXTSIZE
 40
0.2
  9
$TRACEWID
 40
0.05
  9
$TEXTSTYLE
  7
Standard
  9
$CLAYER
  8
0
  9
$CELTYPE
  6
ByLayer
  9
$CECOLOR
 62
   256
  9
$CELTSCALE
 40
1.0
  9
$DISPSILH
 70
     0
  9
$DIMSCALE
 40
1.0
  9
$DIMASZ
 40
0.18
  9
$DIMEXO
 40
0.0625
  9
$DIMDLI
 40
0.38
  9
$DIMRND
 40
0.0
  9
$DIMDLE
 40
0.0
  9
$DIMEXE
 40
0.18
  9
$DIMTP
 40
0.0
  9
$DIMTM
 40
0.0
  9
$DIMTXT
 40
0.18
  9
$DIMCEN
 40
0.09
  9
$DIMTSZ
 40
0.0
  9
$DIMTOL
 70
     0
  9
$DIMLIM
 70
     0
  9
$DIMTIH
 70
     1
  9
$DIMTOH
 70
     1
  9
$DIMSE1
 70
     0
  9
$DIMSE2
 70
     0
  9
$DIMTAD
 70
     0
  9
$DIMZIN
 70
     0
  9
$DIMBLK
  1

  9
$DIMASO
 70
     1
  9
$DIMSHO
 70
     1
  9
$DIMPOST
  1

  9
$DIMAPOST
  1

  9
$DIMALT
 70
     0
  9
$DIMALTD
 70
     2
  9
$DIMALTF
 40
25.4
  9
$DIMLFAC
 40
1.0
  9
$DIMTOFL
 70
     0
  9
$DIMTVP
 40
0.0
  9
$DIMTIX
 70
     0
  9
$DIMSOXD
 70
     0
  9
$DIMSAH
 70
     0
  9
$DIMBLK1
  1

  9
$DIMBLK2
  1

  9
$DIMSTYLE
  2
Standard
  9
$DIMCLRD
 70
     0
  9
$DIMCLRE
 70
     0
  9
$DIMCLRT
 70
     0
  9
$DIMTFAC
 40
1.0
  9
$DIMGAP
 40
0.09
  9
$DIMJUST
 70
     0
  9
$DIMSD1
 70
     0
  9
$DIMSD2
 70
     0
  9
$DIMTOLJ
 70
     1
  9
$DIMTZIN
 70
     0
  9
$DIMALTZ
 70
     0
  9
$DIMALTTZ
 70
     0
  9
$DIMUPT
 70
     0
  9
$DIMDEC
 70
     4
  9
$DIMTDEC
 70
     4
  9
$DIMALTU
 70
     2
  9
$DIMALTTD
 70
     2
  9
$DIMTXSTY
  7
Standard
  9
$DIMAUNIT
 70
     0
  9
$DIMADEC
 70
     0
  9
$DIMALTRND
 40
0.0
  9
$DIMAZIN
 70
     0
  9
$DIMDSEP
 70
    46
  9
$DIMATFIT
 70
     3
  9
$DIMFRAC
 70
     0
  9
$DIMLDRBLK
  1

  9
$DIMLUNIT
 70
     2
  9
$DIMLWD
 70
    -2
  9
$DIMLWE
 70
    -2
  9
$DIMTMOVE
 70
     0
  9
$LUNITS
 70
     2
  9
$LUPREC
 70
     4
  9
$SKETCHINC
 40
0.1
  9
$FILLETRAD
 40
0.5
  9
$AUNITS
 70
     0
  9
$AUPREC
 70
     0
  9
$MENU
  1
.
  9
$ELEVATION
 40
0.0
  9
$PELEVATION
 40
0.0
  9
$THICKNESS
 40
0.0
  9
$LIMCHECK
 70
     0
  9
$CHAMFERA
 40
0.5
  9
$CHAMFERB
 40
0.5
  9
$CHAMFERC
 40
1.0
  9
$CHAMFERD
 40
0.0
  9
$SKPOLY
 70
     0
  9
$TDCREATE
 40
2457434.852604167
  9
$TDUCREATE
 40
2457434.852604167
  9
$TDUPDATE
 40
2457434.852604178
  9
$TDUUPDATE
 40
2457434.852604178
  9
$TDINDWG
 40
0.0000000116
  9
$TDUSRTIMER
 40
0.0000000116
  9
$USRTIMER
 70
     1
  9
$ANGBASE
 50
0.0
  9
$ANGDIR
 70
     0
  9
$PDMODE
 70
     0
  9
$PDSIZE
 40
0.0
  9
$PLINEWID
 40
0.0
  9
$SPLFRAME
 70
     0
  9
$SPLINETYPE
 70
     6
  9
$SPLINESEGS
 70
     8
  9
$HANDSEED
  5
D2
  9
$SURFTAB1
 70
     6
  9
$SURFTAB2
 70
     6
  9
$SURFTYPE
 70
     6
  9
$SURFU
 70
     6
  9
$SURFV
 70
     6
  9
$UCSBASE
  2

  9
$UCSNAME
  2

  9
$UCSORG
 10
0.0
 20
0.0
 30
0.0
  9
$UCSXDIR
 10
1.0
 20
0.0
 30
0.0
  9
$UCSYDIR
 10
0.0
 20
1.0
 30
0.0
  9
$UCSORTHOREF
  2

  9
$UCSORTHOVIEW
 70
     0
  9
$UCSORGTOP
 10
0.0
 20
0.0
 30
0.0
  9
$UCSORGBOTTOM
 10
0.0
 20
0.0
 30
0.0
  9
$UCSORGLEFT
 10
0.0
 20
0.0
 30
0.0
  9
$UCSORGRIGHT
 10
0.0
 20
0.0
 30
0.0
  9
$UCSORGFRONT
 10
0.0
 20
0.0
 30
0.0
  9
$UCSORGBACK
 10
0.0
 20
0.0
 30
0.0
  9
$PUCSBASE
  2

  9
$PUCSNAME
  2

  9
$PUCSORG
 10
0.0
 20
0.0
 30
0.0
  9
$PUCSXDIR
 10
1.0
 20
0.0
 30
0.0
  9
$PUCSYDIR
 10
0.0
 20
1.0
 30
0.0
  9
$PUCSORTHOREF
  2

  9
$PUCSORTHOVIEW
 70
     0
  9
$PUCSORGTOP
 10
0.0
 20
0.0
 30
0.0
  9
$PUCSORGBOTTOM
 10
0.0
 20
0.0
 30
0.0
  9
$PUCSORGLEFT
 10
0.0
 20
0.0
 30
0.0
  9
$PUCSORGRIGHT
 10
0.0
 20
0.0
 30
0.0
  9
$PUCSORGFRONT
 10
0.0
 20
0.0
 30
0.0
  9
$PUCSORGBACK
 10
0.0
 20
0.0
 30
0.0
  9
$USERI1
 70
     0
  9
$USERI2
 70
     0
  9
$USERI3
 70
     0
  9
$USERI4
 70
     0
  9
$USERI5
 70
     0
  9
$USERR1
 40
0.0
  9
$USERR2
 40
0.0
  9
$USERR3
 40
0.0
  9
$USERR4
 40
0.0
  9
$USERR5
 40
0.0
  9
$WORLDVIEW
 70
     1
  9
$SHADEDGE
 70
     3
  9
$SHADEDIF
 70
    70
  9
$TILEMODE
 70
     1
  9
$MAXACTVP
 70
    64
  9
$PINSBASE
 10
0.0
 20
0.0
 30
0.0
  9
$PLIMCHECK
 70
     0
  9
$PEXTMIN
 10
1.000000000000000E+20
 20
1.000000000000000E+20
 30
1.000000000000000E+20
  9
$PEXTMAX
 10
-1.000000000000000E+20
 20
-1.000000000000000E+20
 30
-1.000000000000000E+20
  9
$PLIMMIN
 10
0.0
 20
0.0
  9
$PLIMMAX
 10
12.0
 20
9.0
  9
$UNITMODE
 70
     0
  9
$VISRETAIN
 70
     1
  9
$PLINEGEN
 70
     0
  9
$PSLTSCALE
 70
     1
  9
$TREEDEPTH
 70
  3020
  9
$CMLSTYLE
  2
Standard
  9
$CMLJUST
 70
     0
  9
$CMLSCALE
 40
1.0
  9
$PROXYGRAPHICS
 70
     1
  9
$MEASUREMENT
 70
     0
  9
$CELWEIGHT
370
    -1
  9
$ENDCAPS
280
     0
  9
$JOINSTYLE
280
     0
  9
$LWDISPLAY
290
     1
  9
$INSUNITS
 70
     1
  9
$HYPERLINKBASE
  1

  9
$STYLESHEET
  1

  9
$XEDIT
290
     1
  9
$CEPSNTYPE
380
     0
  9
$PSTYLEMODE
290
     1
  9
$FINGERPRINTGUID
  2
{2CA95FB7-86B6-D31D-4D76-B02C8C560556}
  9
$VERSIONGUID
  2
{FAEB1C32-E019-11D5-929B-00C0DF256EC4}
  9
$EXTNAMES
290
     1
  9
$PSVPSCALE
 40
0.0
  9
$OLESTARTUP
290
     0
  9
$SORTENTS
280
   127
  9
$INDEXCTL
280
     0
  9
$HIDETEXT
280
     1
  9
$XCLIPFRAME
290
     0
  9
$HALOGAP
280
     0
  9
$OBSCOLOR
 70
   257
  9
$OBSLTYPE
280
     0
  9
$INTERSECTIONDISPLAY
280
     0
  9
$INTERSECTIONCOLOR
 70
   257
  9
$DIMASSOC
280
     2
  9
$PROJECTNAME
  1

  0
ENDSEC
  0
SECTION
  2
CLASSES
  0
CLASS
  1
ACDBDICTIONARYWDFLT
  2
AcDbDictionaryWithDefault
  3
ObjectDBX Classes
 90
        0
 91
        3
280
     0
281
     0
  0
CLASS
  1
VISUALSTYLE
  2
AcDbVisualStyle
  3
ObjectDBX Classes
 90
     4095
 91
        3
280
     0
281
     0
  0
CLASS
  1
IMAGEDEF
  2
AcDbRasterImageDef
  3
ISM
 90
        0
 91
        3
280
     0
281
     0
  0
CLASS
  1
RASTERVARIABLES
  2
AcDbRasterVariables
  3
ISM
 90
        0
 91
        3
280
     0
281
     0
  0
CLASS
  1
IMAGE
  2
AcDbRasterImage
  3
ISM
 90
      127
 91
        4
280
     0
281
     1
  0
CLASS
  1
IMAGEDEF_REACTOR
  2
AcDbRasterImageDefReactor
  3
ISM
 90
        1
 91
        3
280
     0
281
     0
  0
ENDSEC
  0
SECTION
  2
TABLES
  0
TABLE
  2
VPORT
  5
8
330
0
100
AcDbSymbolTable
 70
     1
  0
VPORT
  5
29
330
8
100
AcDbSymbolTableRecord
100
AcDbViewportTableRecord
  2
*Active
 70
     0
 10
0.0
 20
0.0
 11
1.0
 21
1.0
 12
0.0
 22
0.0
 13
0.0
 23
0.0
 14
0.5
 24
0.5
 15
0.5
 25
0.5
 16
0.0
 26
0.0
 36
1.0
 17
148.4999796178229
 27
-105.0008259828644
 37
0.0
 40
210.0016519657288
 41
1.414274394775308
 42
50.0
 43
0.0
 44
0.0
 50
0.0
 51
0.0
 71
     0
 72
   100
 73
     1
 74
     3
 75
     0
 76
     0
 77
     0
 78
     0
281
     0
 65
     1
110
0.0
120
0.0
130
0.0
111
1.0
121
0.0
131
0.0
112
0.0
122
1.0
132
0.0
 79
     0
146
0.0
  0
ENDTAB
  0
TABLE
  2
LTYPE
  5
5
330
0
100
AcDbSymbolTable
 70
     1
  0
LTYPE
  5
14
330
5
100
AcDbSymbolTableRecord
100
AcDbLinetypeTableRecord
  2
ByBlock
 70
     0
  3

 72
    65
 73
     0
 40
0.0
  0
LTYPE
  5
15
330
5
100
AcDbSymbolTableRecord
100
AcDbLinetypeTableRecord
  2
ByLayer
 70
     0
  3

 72
    65
 73
     0
 40
0.0
  0
LTYPE
  5
16
330
5
100
AcDbSymbolTableRecord
100
AcDbLinetypeTableRecord
  2
Continuous
 70
     0
  3
Solid line
 72
    65
 73
     0
 40
0.0
  0
ENDTAB
  0
TABLE
  2
LAYER
  5
2
330
0
100
AcDbSymbolTable
 70
     4
  0
LAYER
  5
10
330
2
100
AcDbSymbolTableRecord
100
AcDbLayerTableRecord
  2
0
 70
     0
 62
     7
  6
Continuous
370
    -3
390
F
  0
LAYER
  5
3B
330
2
100
AcDbSymbolTableRecord
100
AcDbLayerTableRecord
  2
Plastic_Backing
 70
     0
 62
     7
  6
Continuous
370
    -3
390
F
  0
LAYER
  5
67
330
2
100
AcDbSymbolTableRecord
100
AcDbLayerTableRecord
  2
Plastic_Backing_2
 70
     0
 62
     7
  6
Continuous
370
    -3
390
F
  0
LAYER
  5
9A
330
2
100
AcDbSymbolTableRecord
100
AcDbLayerTableRecord
  2
Print
 70
     1
 62
     7
  6
Continuous
370
    -3
390
F
  0
ENDTAB
  0
TABLE
  2
STYLE
  5
3
330
0
100
AcDbSymbolTable
 70
     1
  0
STYLE
  5
11
330
3
100
AcDbSymbolTableRecord
100
AcDbTextStyleTableRecord
  2
Standard
 70
     0
 40
0.0
 41
1.0
 50
0.0
 71
     0
 42
0.2
  3
txt
  4

  0
ENDTAB
  0
TABLE
  2
VIEW
  5
6
330
0
100
AcDbSymbolTable
 70
     0
  0
ENDTAB
  0
TABLE
  2
UCS
  5
7
330
0
100
AcDbSymbolTable
 70
     0
  0
ENDTAB
  0
TABLE
  2
APPID
  5
9
330
0
100
AcDbSymbolTable
 70
     1
  0
APPID
  5
12
330
9
100
AcDbSymbolTableRecord
100
AcDbRegAppTableRecord
  2
ACAD
 70
     0
  0
ENDTAB
  0
TABLE
  2
DIMSTYLE
  5
A
330
0
100
AcDbSymbolTable
 70
     1
100
AcDbDimStyleTable
  0
DIMSTYLE
105
27
330
A
100
AcDbSymbolTableRecord
100
AcDbDimStyleTableRecord
  2
Standard
 70
     0
340
11
  0
ENDTAB
  0
TABLE
  2
BLOCK_RECORD
  5
1
330
0
100
AcDbSymbolTable
 70
     1
  0
BLOCK_RECORD
  5
1F
330
1
100
AcDbSymbolTableRecord
100
AcDbBlockTableRecord
  2
*Model_Space
340
22
  0
BLOCK_RECORD
  5
1B
330
1
100
AcDbSymbolTableRecord
100
AcDbBlockTableRecord
  2
*Paper_Space
340
1E
  0
BLOCK_RECORD
  5
23
330
1
100
AcDbSymbolTableRecord
100
AcDbBlockTableRecord
  2
*Paper_Space0
340
26
  0
ENDTAB
  0
ENDSEC
  0
SECTION
  2
BLOCKS
  0
BLOCK
  5
20
330
1F
100
AcDbEntity
  8
0
100
AcDbBlockBegin
  2
*Model_Space
 70
     0
 71
     0
 10
0.0
 20
0.0
 30
0.0
  3
*Model_Space
  1

  0
ENDBLK
  5
21
330
1F
100
AcDbEntity
  8
0
100
AcDbBlockEnd
  0
BLOCK
  5
1C
330
1B
100
AcDbEntity
 67
     1
  8
0
100
AcDbBlockBegin
  2
*Paper_Space
 70
     0
 71
     0
 10
0.0
 20
0.0
 30
0.0
  3
*Paper_Space
  1

  0
ENDBLK
  5
1D
330
1B
100
AcDbEntity
 67
     1
  8
0
100
AcDbBlockEnd
  0
BLOCK
  5
24
330
23
100
AcDbEntity
  8
0
100
AcDbBlockBegin
  2
*Paper_Space0
 70
     0
 71
     0
 10
0.0
 20
0.0
 30
0.0
  3
*Paper_Space0
  1

  0
ENDBLK
  5
25
330
23
100
AcDbEntity
  8
0
100
AcDbBlockEnd
  0
ENDSEC
  0
SECTION
  2
ENTITIES
  0
SPLINE
  5
3C
330
1F
100
AcDbEntity
  8
Plastic_Backing
 62
   179
420
  2301728
370
    35
100
AcDbSpline
210
0.0
220
0.0
230
1.0
 70
    11
 71
     3
 72
    53
 73
    49
 74
     0
 42
0.0000000001
 43
0.0000000001
 40
0.0
 40
0.0
 40
0.0
 40
0.0
 40
1.0
 40
1.0
 40
1.0
 40
2.0
 40
2.0
 40
2.0
 40
3.0
 40
3.0
 40
3.0
 40
4.0
 40
4.0
 40
4.0
 40
5.0
 40
5.0
 40
5.0
 40
6.0
 40
6.0
 40
6.0
 40
7.0
 40
7.0
 40
7.0
 40
8.0
 40
8.0
 40
8.0
 40
9.0
 40
9.0
 40
9.0
 40
10.0
 40
10.0
 40
10.0
 40
11.0
 40
11.0
 40
11.0
 40
12.0
 40
12.0
 40
12.0
 40
13.0
 40
13.0
 40
13.0
 40
14.0
 40
14.0
 40
14.0
 40
15.0
 40
15.0
 40
15.0
 40
16.0
 40
16.0
 40
16.0
 40
16.0
 10
204.8247069800438
 20
-15.72289903035747
 30
0.0
 10
204.8247069800438
 20
-15.72289903035747
 30
0.0
 10
177.1089138012089
 20
-15.72289903035747
 30
0.0
 10
177.1089138012089
 20
-15.72289903035747
 30
0.0
 10
175.551730641876
 20
-15.72289903035747
 30
0.0
 10
174.1402750215691
 20
-16.44636908225993
 30
0.0
 10
173.0984781468296
 20
-17.61735703769635
 30
0.0
 10
173.0984781468296
 20
-17.61735703769635
 30
0.0
 10
58.71114500485346
 20
-17.61735703769635
 30
0.0
 10
58.71114500485346
 20
-17.61735703769635
 30
0.0
 10
57.66900362056539
 20
-16.44636908225993
 30
0.0
 10
56.25806476458132
 20
-15.72289903035747
 30
0.0
 10
54.70019258615135
 20
-15.72289903035747
 30
0.0
 10
54.70019258615135
 20
-15.72289903035747
 30
0.0
 10
26.98508842641345
 20
-15.72289903035747
 30
0.0
 10
26.98508842641345
 20
-15.72289903035747
 30
0.0
 10
23.78132187990537
 20
-15.72289903035747
 30
0.0
 10
21.18389213880125
 20
-18.76715765589849
 30
0.0
 10
21.18389213880125
 20
-22.52300075391786
 30
0.0
 10
21.18389213880125
 20
-22.52300075391786
 30
0.0
 10
21.18389213880125
 20
-60.67760550783407
 30
0.0
 10
21.18389213880125
 20
-60.67760550783407
 30
0.0
 10
21.18389213880125
 20
-64.43327635107919
 30
0.0
 10
23.78132187990537
 20
-67.47770723139446
 30
0.0
 10
26.98508842641345
 20
-67.47770723139446
 30
0.0
 10
26.98508842641345
 20
-67.47770723139446
 30
0.0
 10
54.70019258615135
 20
-67.47770723139446
 30
0.0
 10
54.70019258615135
 20
-67.47770723139446
 30
0.0
 10
56.19622530062109
 20
-67.47770723139446
 30
0.0
 10
57.55583223387493
 20
-66.80815292383616
 30
0.0
 10
58.5847100005448
 20
-65.71795245752885
 30
0.0
 10
58.5847100005448
 20
-65.71795245752885
 30
0.0
 10
173.2249131511382
 20
-65.71795245752885
 30
0.0
 10
173.2249131511382
 20
-65.71795245752885
 30
0.0
 10
174.2532741534853
 20
-66.80815292383616
 30
0.0
 10
175.6127088319649
 20
-67.47770723139446
 30
0.0
 10
177.1089138012089
 20
-67.47770723139446
 30
0.0
 10
177.1089138012089
 20
-67.47770723139446
 30
0.0
 10
204.8247069800438
 20
-67.47770723139446
 30
0.0
 10
204.8247069800438
 20
-67.47770723139446
 30
0.0
 10
208.0286457813262
 20
-67.47770723139446
 30
0.0
 10
210.6255587581075
 20
-64.43327635107919
 30
0.0
 10
210.6255587581075
 20
-60.67760550783407
 30
0.0
 10
210.6255587581075
 20
-60.67760550783407
 30
0.0
 10
210.6255587581075
 20
-22.52300075391786
 30
0.0
 10
210.6255587581075
 20
-22.52300075391786
 30
0.0
 10
210.6255587581075
 20
-18.76715765589849
 30
0.0
 10
208.0286457813262
 20
-15.72289903035747
 30
0.0
 10
204.8247069800438
 20
-15.72289903035747
 30
0.0
  0
POLYLINE
  5
3D
330
1F
100
AcDbEntity
  8
Plastic_Backing
 62
   179
420
  2301728
370
    35
100
AcDb2dPolyline
 66
     1
 10
0.0
 20
0.0
 30
0.0
  0
VERTEX
  5
3E
330
3D
100
AcDbEntity
  8
Plastic_Backing
 62
   179
420
  2301728
370
    35
100
AcDbVertex
100
AcDb2dVertex
 10
44.80277776657709
 20
-23.81249999404688
 30
0.0
  0
VERTEX
  5
3F
330
3D
100
AcDbEntity
  8
Plastic_Backing
 62
   179
420
  2301728
370
    35
100
AcDbVertex
100
AcDb2dVertex
 10
33.51388888051042
 20
-23.81249999404688
 30
0.0
  0
VERTEX
  5
40
330
3D
100
AcDbEntity
  8
Plastic_Backing
 62
   179
420
  2301728
370
    35
100
AcDbVertex
100
AcDb2dVertex
 10
33.51388888051042
 20
-19.22638888408229
 30
0.0
  0
VERTEX
  5
41
330
3D
100
AcDbEntity
  8
Plastic_Backing
 62
   179
420
  2301728
370
    35
100
AcDbVertex
100
AcDb2dVertex
 10
44.80277776657709
 20
-19.22638888408229
 30
0.0
  0
VERTEX
  5
42
330
3D
100
AcDbEntity
  8
Plastic_Backing
 62
   179
420
  2301728
370
    35
100
AcDbVertex
100
AcDb2dVertex
 10
44.80277776657709
 20
-23.81249999404688
 30
0.0
  0
SEQEND
  5
43
330
3D
100
AcDbEntity
  8
Plastic_Backing
370
    35
  0
POLYLINE
  5
44
330
1F
100
AcDbEntity
  8
Plastic_Backing
 62
   179
420
  2301728
370
    35
100
AcDb2dPolyline
 66
     1
 10
0.0
 20
0.0
 30
0.0
  0
VERTEX
  5
45
330
44
100
AcDbEntity
  8
Plastic_Backing
 62
   179
420
  2301728
370
    35
100
AcDbVertex
100
AcDb2dVertex
 10
44.80277776657709
 20
-62.61805553990104
 30
0.0
  0
VERTEX
  5
46
330
44
100
AcDbEntity
  8
Plastic_Backing
 62
   179
420
  2301728
370
    35
100
AcDbVertex
100
AcDb2dVertex
 10
33.51388888051042
 20
-62.61805553990104
 30
0.0
  0
VERTEX
  5
47
330
44
100
AcDbEntity
  8
Plastic_Backing
 62
   179
420
  2301728
370
    35
100
AcDbVertex
100
AcDb2dVertex
 10
33.51388888051042
 20
-58.03194442993646
 30
0.0
  0
VERTEX
  5
48
330
44
100
AcDbEntity
  8
Plastic_Backing
 62
   179
420
  2301728
370
    35
100
AcDbVertex
100
AcDb2dVertex
 10
44.80277776657709
 20
-58.03194442993646
 30
0.0
  0
VERTEX
  5
49
330
44
100
AcDbEntity
  8
Plastic_Backing
 62
   179
420
  2301728
370
    35
100
AcDbVertex
100
AcDb2dVertex
 10
44.80277776657709
 20
-62.61805553990104
 30
0.0
  0
SEQEND
  5
4A
330
44
100
AcDbEntity
  8
Plastic_Backing
370
    35
  0
POLYLINE
  5
4B
330
1F
100
AcDbEntity
  8
Plastic_Backing
 62
   179
420
  2301728
370
    35
100
AcDb2dPolyline
 66
     1
 10
0.0
 20
0.0
 30
0.0
  0
VERTEX
  5
4C
330
4B
100
AcDbEntity
  8
Plastic_Backing
 62
   179
420
  2301728
370
    35
100
AcDbVertex
100
AcDb2dVertex
 10
30.86805554783854
 20
-35.27777776895834
 30
0.0
  0
VERTEX
  5
4D
330
4B
100
AcDbEntity
  8
Plastic_Backing
 62
   179
420
  2301728
370
    35
100
AcDbVertex
100
AcDb2dVertex
 10
30.86805554783854
 20
-46.566666655025
 30
0.0
  0
VERTEX
  5
4E
330
4B
100
AcDbEntity
  8
Plastic_Backing
 62
   179
420
  2301728
370
    35
100
AcDbVertex
100
AcDb2dVertex
 10
26.28194443787396
 20
-46.566666655025
 30
0.0
  0
VERTEX
  5
4F
330
4B
100
AcDbEntity
  8
Plastic_Backing
 62
   179
420
  2301728
370
    35
100
AcDbVertex
100
AcDb2dVertex
 10
26.28194443787396
 20
-35.27777776895834
 30
0.0
  0
VERTEX
  5
50
330
4B
100
AcDbEntity
  8
Plastic_Backing
 62
   179
420
  2301728
370
    35
100
AcDbVertex
100
AcDb2dVertex
 10
30.86805554783854
 20
-35.27777776895834
 30
0.0
  0
SEQEND
  5
51
330
4B
100
AcDbEntity
  8
Plastic_Backing
370
    35
  0
POLYLINE
  5
52
330
1F
100
AcDbEntity
  8
Plastic_Backing
 62
   179
420
  2301728
370
    35
100
AcDb2dPolyline
 66
     1
 10
0.0
 20
0.0
 30
0.0
  0
VERTEX
  5
53
330
52
100
AcDbEntity
  8
Plastic_Backing
 62
   179
420
  2301728
370
    35
100
AcDbVertex
100
AcDb2dVertex
 10
186.7958332866344
 20
-23.81249999404688
 30
0.0
  0
VERTEX
  5
54
330
52
100
AcDbEntity
  8
Plastic_Backing
 62
   179
420
  2301728
370
    35
100
AcDbVertex
100
AcDb2dVertex
 10
198.084722172701
 20
-23.81249999404688
 30
0.0
  0
VERTEX
  5
55
330
52
100
AcDbEntity
  8
Plastic_Backing
 62
   179
420
  2301728
370
    35
100
AcDbVertex
100
AcDb2dVertex
 10
198.084722172701
 20
-19.22638888408229
 30
0.0
  0
VERTEX
  5
56
330
52
100
AcDbEntity
  8
Plastic_Backing
 62
   179
420
  2301728
370
    35
100
AcDbVertex
100
AcDb2dVertex
 10
186.7958332866344
 20
-19.22638888408229
 30
0.0
  0
VERTEX
  5
57
330
52
100
AcDbEntity
  8
Plastic_Backing
 62
   179
420
  2301728
370
    35
100
AcDbVertex
100
AcDb2dVertex
 10
186.7958332866344
 20
-23.81249999404688
 30
0.0
  0
SEQEND
  5
58
330
52
100
AcDbEntity
  8
Plastic_Backing
370
    35
  0
POLYLINE
  5
59
330
1F
100
AcDbEntity
  8
Plastic_Backing
 62
   179
420
  2301728
370
    35
100
AcDb2dPolyline
 66
     1
 10
0.0
 20
0.0
 30
0.0
  0
VERTEX
  5
5A
330
59
100
AcDbEntity
  8
Plastic_Backing
 62
   179
420
  2301728
370
    35
100
AcDbVertex
100
AcDb2dVertex
 10
186.7958332866344
 20
-62.61805553990104
 30
0.0
  0
VERTEX
  5
5B
330
59
100
AcDbEntity
  8
Plastic_Backing
 62
   179
420
  2301728
370
    35
100
AcDbVertex
100
AcDb2dVertex
 10
198.084722172701
 20
-62.61805553990104
 30
0.0
  0
VERTEX
  5
5C
330
59
100
AcDbEntity
  8
Plastic_Backing
 62
   179
420
  2301728
370
    35
100
AcDbVertex
100
AcDb2dVertex
 10
198.084722172701
 20
-58.03194442993646
 30
0.0
  0
VERTEX
  5
5D
330
59
100
AcDbEntity
  8
Plastic_Backing
 62
   179
420
  2301728
370
    35
100
AcDbVertex
100
AcDb2dVertex
 10
186.7958332866344
 20
-58.03194442993646
 30
0.0
  0
VERTEX
  5
5E
330
59
100
AcDbEntity
  8
Plastic_Backing
 62
   179
420
  2301728
370
    35
100
AcDbVertex
100
AcDb2dVertex
 10
186.7958332866344
 20
-62.61805553990104
 30
0.0
  0
SEQEND
  5
5F
330
59
100
AcDbEntity
  8
Plastic_Backing
370
    35
  0
POLYLINE
  5
60
330
1F
100
AcDbEntity
  8
Plastic_Backing
 62
   179
420
  2301728
370
    35
100
AcDb2dPolyline
 66
     1
 10
0.0
 20
0.0
 30
0.0
  0
VERTEX
  5
61
330
60
100
AcDbEntity
  8
Plastic_Backing
 62
   179
420
  2301728
370
    35
100
AcDbVertex
100
AcDb2dVertex
 10
200.7305555053729
 20
-35.27777776895834
 30
0.0
  0
VERTEX
  5
62
330
60
100
AcDbEntity
  8
Plastic_Backing
 62
   179
420
  2301728
370
    35
100
AcDbVertex
100
AcDb2dVertex
 10
200.7305555053729
 20
-46.566666655025
 30
0.0
  0
VERTEX
  5
63
330
60
100
AcDbEntity
  8
Plastic_Backing
 62
   179
420
  2301728
370
    35
100
AcDbVertex
100
AcDb2dVertex
 10
205.3166666153375
 20
-46.566666655025
 30
0.0
  0
VERTEX
  5
64
330
60
100
AcDbEntity
  8
Plastic_Backing
 62
   179
420
  2301728
370
    35
100
AcDbVertex
100
AcDb2dVertex
 10
205.3166666153375
 20
-35.27777776895834
 30
0.0
  0
VERTEX
  5
65
330
60
100
AcDbEntity
  8
Plastic_Backing
 62
   179
420
  2301728
370
    35
100
AcDbVertex
100
AcDb2dVertex
 10
200.7305555053729
 20
-35.27777776895834
 30
0.0
  0
SEQEND
  5
66
330
60
100
AcDbEntity
  8
Plastic_Backing
370
    35
  0
SPLINE
  5
68
330
1F
100
AcDbEntity
  8
Plastic_Backing_2
 62
   179
420
  2301728
370
    35
100
AcDbSpline
210
0.0
220
0.0
230
1.0
 70
    11
 71
     3
 72
    53
 73
    49
 74
     0
 42
0.0000000001
 43
0.0000000001
 40
0.0
 40
0.0
 40
0.0
 40
0.0
 40
1.0
 40
1.0
 40
1.0
 40
2.0
 40
2.0
 40
2.0
 40
3.0
 40
3.0
 40
3.0
 40
4.0
 40
4.0
 40
4.0
 40
5.0
 40
5.0
 40
5.0
 40
6.0
 40
6.0
 40
6.0
 40
7.0
 40
7.0
 40
7.0
 40
8.0
 40
8.0
 40
8.0
 40
9.0
 40
9.0
 40
9.0
 40
10.0
 40
10.0
 40
10.0
 40
11.0
 40
11.0
 40
11.0
 40
12.0
 40
12.0
 40
12.0
 40
13.0
 40
13.0
 40
13.0
 40
14.0
 40
14.0
 40
14.0
 40
15.0
 40
15.0
 40
15.0
 40
16.0
 40
16.0
 40
16.0
 40
16.0
 10
204.4588378395103
 20
-71.05871173353741
 30
0.0
 10
204.4588378395103
 20
-71.05871173353741
 30
0.0
 10
176.7430446606754
 20
-71.05871173353741
 30
0.0
 10
176.7430446606754
 20
-71.05871173353741
 30
0.0
 10
175.1858615013424
 20
-71.05871173353741
 30
0.0
 10
173.7744058810356
 20
-71.78218178543987
 30
0.0
 10
172.732609006296
 20
-72.95316974087629
 30
0.0
 10
172.732609006296
 20
-72.95316974087629
 30
0.0
 10
58.34527586431993
 20
-72.95316974087629
 30
0.0
 10
58.34527586431993
 20
-72.95316974087629
 30
0.0
 10
57.30313448003186
 20
-71.78218178543987
 30
0.0
 10
55.89219562404779
 20
-71.05871173353741
 30
0.0
 10
54.33432344561781
 20
-71.05871173353741
 30
0.0
 10
54.33432344561781
 20
-71.05871173353741
 30
0.0
 10
26.61921928587992
 20
-71.05871173353741
 30
0.0
 10
26.61921928587992
 20
-71.05871173353741
 30
0.0
 10
23.41545273937183
 20
-71.05871173353741
 30
0.0
 10
20.81802299826772
 20
-74.10297035907843
 30
0.0
 10
20.81802299826772
 20
-77.8588134570978
 30
0.0
 10
20.81802299826772
 20
-77.8588134570978
 30
0.0
 10
20.81802299826772
 20
-116.0135904657883
 30
0.0
 10
20.81802299826772
 20
-116.0135904657883
 30
0.0
 10
20.81802299826772
 20
-119.7690890542591
 30
0.0
 10
23.41545273937183
 20
-122.8135199345744
 30
0.0
 10
26.61921928587992
 20
-122.8135199345744
 30
0.0
 10
26.61921928587992
 20
-122.8135199345744
 30
0.0
 10
54.33432344561781
 20
-122.8135199345744
 30
0.0
 10
54.33432344561781
 20
-122.8135199345744
 30
0.0
 10
55.83035616008755
 20
-122.8135199345744
 30
0.0
 10
57.1899630933414
 20
-122.1437933722418
 30
0.0
 10
58.21884086001126
 20
-121.0537651607088
 30
0.0
 10
58.21884086001126
 20
-121.0537651607088
 30
0.0
 10
172.8590440106047
 20
-121.0537651607088
 30
0.0
 10
172.8590440106047
 20
-121.0537651607088
 30
0.0
 10
173.8874050129518
 20
-122.1437933722418
 30
0.0
 10
175.2468396914313
 20
-122.8135199345744
 30
0.0
 10
176.7430446606754
 20
-122.8135199345744
 30
0.0
 10
176.7430446606754
 20
-122.8135199345744
 30
0.0
 10
204.4588378395103
 20
-122.8135199345744
 30
0.0
 10
204.4588378395103
 20
-122.8135199345744
 30
0.0
 10
207.6627766407927
 20
-122.8135199345744
 30
0.0
 10
210.259689617574
 20
-119.7690890542591
 30
0.0
 10
210.259689617574
 20
-116.0135904657883
 30
0.0
 10
210.259689617574
 20
-116.0135904657883
 30
0.0
 10
210.259689617574
 20
-77.8588134570978
 30
0.0
 10
210.259689617574
 20
-77.8588134570978
 30
0.0
 10
210.259689617574
 20
-74.10297035907843
 30
0.0
 10
207.6627766407927
 20
-71.05871173353741
 30
0.0
 10
204.4588378395103
 20
-71.05871173353741
 30
0.0
  0
POLYLINE
  5
69
330
1F
100
AcDbEntity
  8
Plastic_Backing_2
 62
   179
420
  2301728
370
    35
100
AcDb2dPolyline
 66
     1
 10
0.0
 20
0.0
 30
0.0
  0
VERTEX
  5
6A
330
69
100
AcDbEntity
  8
Plastic_Backing_2
 62
   179
420
  2301728
370
    35
100
AcDbVertex
100
AcDb2dVertex
 10
44.43690862604355
 20
-79.14831269722681
 30
0.0
  0
VERTEX
  5
6B
330
69
100
AcDbEntity
  8
Plastic_Backing_2
 62
   179
420
  2301728
370
    35
100
AcDbVertex
100
AcDb2dVertex
 10
33.14801973997689
 20
-79.14831269722681
 30
0.0
  0
VERTEX
  5
6C
330
69
100
AcDbEntity
  8
Plastic_Backing_2
 62
   179
420
  2301728
370
    35
100
AcDbVertex
100
AcDb2dVertex
 10
33.14801973997689
 20
-74.56220158726224
 30
0.0
  0
VERTEX
  5
6D
330
69
100
AcDbEntity
  8
Plastic_Backing_2
 62
   179
420
  2301728
370
    35
100
AcDbVertex
100
AcDb2dVertex
 10
44.43690862604355
 20
-74.56220158726224
 30
0.0
  0
VERTEX
  5
6E
330
69
100
AcDbEntity
  8
Plastic_Backing_2
 62
   179
420
  2301728
370
    35
100
AcDbVertex
100
AcDb2dVertex
 10
44.43690862604355
 20
-79.14831269722681
 30
0.0
  0
SEQEND
  5
6F
330
69
100
AcDbEntity
  8
Plastic_Backing_2
370
    35
  0
POLYLINE
  5
70
330
1F
100
AcDbEntity
  8
Plastic_Backing_2
 62
   179
420
  2301728
370
    35
100
AcDb2dPolyline
 66
     1
 10
0.0
 20
0.0
 30
0.0
  0
VERTEX
  5
71
330
70
100
AcDbEntity
  8
Plastic_Backing_2
 62
   179
420
  2301728
370
    35
100
AcDbVertex
100
AcDb2dVertex
 10
44.43690862604355
 20
-117.953868243081
 30
0.0
  0
VERTEX
  5
72
330
70
100
AcDbEntity
  8
Plastic_Backing_2
 62
   179
420
  2301728
370
    35
100
AcDbVertex
100
AcDb2dVertex
 10
33.14801973997689
 20
-117.953868243081
 30
0.0
  0
VERTEX
  5
73
330
70
100
AcDbEntity
  8
Plastic_Backing_2
 62
   179
420
  2301728
370
    35
100
AcDbVertex
100
AcDb2dVertex
 10
33.14801973997689
 20
-113.3677571331164
 30
0.0
  0
VERTEX
  5
74
330
70
100
AcDbEntity
  8
Plastic_Backing_2
 62
   179
420
  2301728
370
    35
100
AcDbVertex
100
AcDb2dVertex
 10
44.43690862604355
 20
-113.3677571331164
 30
0.0
  0
VERTEX
  5
75
330
70
100
AcDbEntity
  8
Plastic_Backing_2
 62
   179
420
  2301728
370
    35
100
AcDbVertex
100
AcDb2dVertex
 10
44.43690862604355
 20
-117.953868243081
 30
0.0
  0
SEQEND
  5
76
330
70
100
AcDbEntity
  8
Plastic_Backing_2
370
    35
  0
POLYLINE
  5
77
330
1F
100
AcDbEntity
  8
Plastic_Backing_2
 62
   179
420
  2301728
370
    35
100
AcDb2dPolyline
 66
     1
 10
0.0
 20
0.0
 30
0.0
  0
VERTEX
  5
78
330
77
100
AcDbEntity
  8
Plastic_Backing_2
 62
   179
420
  2301728
370
    35
100
AcDbVertex
100
AcDb2dVertex
 10
30.50218640730501
 20
-90.61359047213827
 30
0.0
  0
VERTEX
  5
79
330
77
100
AcDbEntity
  8
Plastic_Backing_2
 62
   179
420
  2301728
370
    35
100
AcDbVertex
100
AcDb2dVertex
 10
30.50218640730501
 20
-101.9024793582049
 30
0.0
  0
VERTEX
  5
7A
330
77
100
AcDbEntity
  8
Plastic_Backing_2
 62
   179
420
  2301728
370
    35
100
AcDbVertex
100
AcDb2dVertex
 10
25.91607529734043
 20
-101.9024793582049
 30
0.0
  0
VERTEX
  5
7B
330
77
100
AcDbEntity
  8
Plastic_Backing_2
 62
   179
420
  2301728
370
    35
100
AcDbVertex
100
AcDb2dVertex
 10
25.91607529734043
 20
-90.61359047213827
 30
0.0
  0
VERTEX
  5
7C
330
77
100
AcDbEntity
  8
Plastic_Backing_2
 62
   179
420
  2301728
370
    35
100
AcDbVertex
100
AcDb2dVertex
 10
30.50218640730501
 20
-90.61359047213827
 30
0.0
  0
SEQEND
  5
7D
330
77
100
AcDbEntity
  8
Plastic_Backing_2
370
    35
  0
POLYLINE
  5
7E
330
1F
100
AcDbEntity
  8
Plastic_Backing_2
 62
   179
420
  2301728
370
    35
100
AcDb2dPolyline
 66
     1
 10
0.0
 20
0.0
 30
0.0
  0
VERTEX
  5
7F
330
7E
100
AcDbEntity
  8
Plastic_Backing_2
 62
   179
420
  2301728
370
    35
100
AcDbVertex
100
AcDb2dVertex
 10
186.4299641461008
 20
-79.14831269722681
 30
0.0
  0
VERTEX
  5
80
330
7E
100
AcDbEntity
  8
Plastic_Backing_2
 62
   179
420
  2301728
370
    35
100
AcDbVertex
100
AcDb2dVertex
 10
197.7188530321675
 20
-79.14831269722681
 30
0.0
  0
VERTEX
  5
81
330
7E
100
AcDbEntity
  8
Plastic_Backing_2
 62
   179
420
  2301728
370
    35
100
AcDbVertex
100
AcDb2dVertex
 10
197.7188530321675
 20
-74.56220158726224
 30
0.0
  0
VERTEX
  5
82
330
7E
100
AcDbEntity
  8
Plastic_Backing_2
 62
   179
420
  2301728
370
    35
100
AcDbVertex
100
AcDb2dVertex
 10
186.4299641461008
 20
-74.56220158726224
 30
0.0
  0
VERTEX
  5
83
330
7E
100
AcDbEntity
  8
Plastic_Backing_2
 62
   179
420
  2301728
370
    35
100
AcDbVertex
100
AcDb2dVertex
 10
186.4299641461008
 20
-79.14831269722681
 30
0.0
  0
SEQEND
  5
84
330
7E
100
AcDbEntity
  8
Plastic_Backing_2
370
    35
  0
POLYLINE
  5
85
330
1F
100
AcDbEntity
  8
Plastic_Backing_2
 62
   179
420
  2301728
370
    35
100
AcDb2dPolyline
 66
     1
 10
0.0
 20
0.0
 30
0.0
  0
VERTEX
  5
86
330
85
100
AcDbEntity
  8
Plastic_Backing_2
 62
   179
420
  2301728
370
    35
100
AcDbVertex
100
AcDb2dVertex
 10
186.4299641461008
 20
-117.953868243081
 30
0.0
  0
VERTEX
  5
87
330
85
100
AcDbEntity
  8
Plastic_Backing_2
 62
   179
420
  2301728
370
    35
100
AcDbVertex
100
AcDb2dVertex
 10
197.7188530321675
 20
-117.953868243081
 30
0.0
  0
VERTEX
  5
88
330
85
100
AcDbEntity
  8
Plastic_Backing_2
 62
   179
420
  2301728
370
    35
100
AcDbVertex
100
AcDb2dVertex
 10
197.7188530321675
 20
-113.3677571331164
 30
0.0
  0
VERTEX
  5
89
330
85
100
AcDbEntity
  8
Plastic_Backing_2
 62
   179
420
  2301728
370
    35
100
AcDbVertex
100
AcDb2dVertex
 10
186.4299641461008
 20
-113.3677571331164
 30
0.0
  0
VERTEX
  5
8A
330
85
100
AcDbEntity
  8
Plastic_Backing_2
 62
   179
420
  2301728
370
    35
100
AcDbVertex
100
AcDb2dVertex
 10
186.4299641461008
 20
-117.953868243081
 30
0.0
  0
SEQEND
  5
8B
330
85
100
AcDbEntity
  8
Plastic_Backing_2
370
    35
  0
POLYLINE
  5
8C
330
1F
100
AcDbEntity
  8
Plastic_Backing_2
 62
   179
420
  2301728
370
    35
100
AcDb2dPolyline
 66
     1
 10
0.0
 20
0.0
 30
0.0
  0
VERTEX
  5
8D
330
8C
100
AcDbEntity
  8
Plastic_Backing_2
 62
   179
420
  2301728
370
    35
100
AcDbVertex
100
AcDb2dVertex
 10
200.3646863648394
 20
-90.61359047213827
 30
0.0
  0
VERTEX
  5
8E
330
8C
100
AcDbEntity
  8
Plastic_Backing_2
 62
   179
420
  2301728
370
    35
100
AcDbVertex
100
AcDb2dVertex
 10
200.3646863648394
 20
-101.9024793582049
 30
0.0
  0
VERTEX
  5
8F
330
8C
100
AcDbEntity
  8
Plastic_Backing_2
 62
   179
420
  2301728
370
    35
100
AcDbVertex
100
AcDb2dVertex
 10
204.950797474804
 20
-101.9024793582049
 30
0.0
  0
VERTEX
  5
90
330
8C
100
AcDbEntity
  8
Plastic_Backing_2
 62
   179
420
  2301728
370
    35
100
AcDbVertex
100
AcDb2dVertex
 10
204.950797474804
 20
-90.61359047213827
 30
0.0
  0
VERTEX
  5
91
330
8C
100
AcDbEntity
  8
Plastic_Backing_2
 62
   179
420
  2301728
370
    35
100
AcDbVertex
100
AcDb2dVertex
 10
200.3646863648394
 20
-90.61359047213827
 30
0.0
  0
SEQEND
  5
92
330
8C
100
AcDbEntity
  8
Plastic_Backing_2
370
    35
  0
POLYLINE
  5
93
330
1F
100
AcDbEntity
  8
Plastic_Backing_2
 62
   179
420
  2301728
370
    35
100
AcDb2dPolyline
 66
     1
 10
0.0
 20
0.0
 30
0.0
  0
VERTEX
  5
94
330
93
100
AcDbEntity
  8
Plastic_Backing_2
 62
   179
420
  2301728
370
    35
100
AcDbVertex
100
AcDb2dVertex
 10
195.3999592610459
 20
-108.3864935709937
 30
0.0
  0
VERTEX
  5
95
330
93
100
AcDbEntity
  8
Plastic_Backing_2
 62
   179
420
  2301728
370
    35
100
AcDbVertex
100
AcDb2dVertex
 10
34.94618732850304
 20
-108.3864935709937
 30
0.0
  0
VERTEX
  5
96
330
93
100
AcDbEntity
  8
Plastic_Backing_2
 62
   179
420
  2301728
370
    35
100
AcDbVertex
100
AcDb2dVertex
 10
34.94618732850304
 20
-84.14973006793826
 30
0.0
  0
VERTEX
  5
97
330
93
100
AcDbEntity
  8
Plastic_Backing_2
 62
   179
420
  2301728
370
    35
100
AcDbVertex
100
AcDb2dVertex
 10
195.3999592610459
 20
-84.14973006793826
 30
0.0
  0
VERTEX
  5
98
330
93
100
AcDbEntity
  8
Plastic_Backing_2
 62
   179
420
  2301728
370
    35
100
AcDbVertex
100
AcDb2dVertex
 10
195.3999592610459
 20
-108.3864935709937
 30
0.0
  0
SEQEND
  5
99
330
93
100
AcDbEntity
  8
Plastic_Backing_2
370
    35
  0
POLYLINE
  5
9B
330
1F
100
AcDbEntity
  8
Print
 62
   179
420
  2301728
370
    35
100
AcDb2dPolyline
 66
     1
 10
0.0
 20
0.0
 30
0.0
  0
VERTEX
  5
9C
330
9B
100
AcDbEntity
  8
Print
 62
   179
420
  2301728
370
    35
100
AcDbVertex
100
AcDb2dVertex
 10
195.7658284015794
 20
-53.05068086781372
 30
0.0
  0
VERTEX
  5
9D
330
9B
100
AcDbEntity
  8
Print
 62
   179
420
  2301728
370
    35
100
AcDbVertex
100
AcDb2dVertex
 10
35.31205646903657
 20
-53.05068086781372
 30
0.0
  0
VERTEX
  5
9E
330
9B
100
AcDbEntity
  8
Print
 62
   179
420
  2301728
370
    35
100
AcDbVertex
100
AcDb2dVertex
 10
35.31205646903657
 20
-28.81391736475833
 30
0.0
  0
VERTEX
  5
9F
330
9B
100
AcDbEntity
  8
Print
 62
   179
420
  2301728
370
    35
100
AcDbVertex
100
AcDb2dVertex
 10
195.7658284015794
 20
-28.81391736475833
 30
0.0
  0
VERTEX
  5
A0
330
9B
100
AcDbEntity
  8
Print
 62
   179
420
  2301728
370
    35
100
AcDbVertex
100
AcDb2dVertex
 10
195.7658284015794
 20
-53.05068086781372
 30
0.0
  0
SEQEND
  5
A1
330
9B
100
AcDbEntity
  8
Print
370
    35
  0
IMAGE
  5
A5
330
1F
100
AcDbEntity
  8
Print
 92
        8
310
0800000000000000
100
AcDbRasterImage
 90
        0
 10
131.2782897949219
 20
-51.20314025878906
 30
0.0
 11
0.05569267440701957
 21
0.0
 31
0.0
 12
0.0
 22
0.05569267272949219
 32
0.0
 13
1137.0
 23
375.0
340
A3
 70
     3
280
     0
281
    50
282
    50
283
     0
360
A6
 71
     1
 91
        2
 14
-0.5
 24
-0.5
 14
1136.5
 24
374.5
  0
POLYLINE
  5
A7
330
1F
100
AcDbEntity
  8
Print
 62
   179
420
  2301728
370
    35
100
AcDb2dPolyline
 66
     1
 10
0.0
 20
0.0
 30
0.0
  0
VERTEX
  5
A8
330
A7
100
AcDbEntity
  8
Print
 62
   179
420
  2301728
370
    35
100
AcDbVertex
100
AcDb2dVertex
 10
126.8236110794052
 20
-50.94779458361722
 30
0.0
  0
VERTEX
  5
A9
330
A7
100
AcDbEntity
  8
Print
 62
   179
420
  2301728
370
    35
100
AcDbVertex
100
AcDb2dVertex
 10
76.74449732239374
 20
-50.94779458361722
 30
0.0
  0
VERTEX
  5
AA
330
A7
100
AcDbEntity
  8
Print
 62
   179
420
  2301728
370
    35
100
AcDbVertex
100
AcDb2dVertex
 10
76.74449732239374
 20
-45.72985296165782
 30
0.0
  0
VERTEX
  5
AB
330
A7
100
AcDbEntity
  8
Print
 62
   179
420
  2301728
370
    35
100
AcDbVertex
100
AcDb2dVertex
 10
126.8236110794052
 20
-45.72985296165782
 30
0.0
  0
VERTEX
  5
AC
330
A7
100
AcDbEntity
  8
Print
 62
   179
420
  2301728
370
    35
100
AcDbVertex
100
AcDb2dVertex
 10
126.8236110794052
 20
-50.94779458361722
 30
0.0
  0
SEQEND
  5
AD
330
A7
100
AcDbEntity
  8
Print
370
    35
  0
HATCH
  5
AE
330
1F
100
AcDbEntity
  8
Print
 62
   251
420
  5789787
100
AcDbHatch
 10
0.0
 20
0.0
 30
0.0
210
0.0
220
0.0
230
1.0
  2
SOLID
 70
     1
 71
     0
 91
        1
 92
        1
 93
        4
 72
     1
 10
126.8236110794052
 20
-50.94779458361722
 11
76.74449732239374
 21
-50.94779458361722
 72
     1
 10
76.74449732239374
 20
-50.94779458361722
 11
76.74449732239374
 21
-45.72985296165782
 72
     1
 10
76.74449732239374
 20
-45.72985296165782
 11
126.8236110794052
 21
-45.72985296165782
 72
     1
 10
126.8236110794052
 20
-45.72985296165782
 11
126.8236110794052
 21
-50.94779458361722
 97
        0
 75
     2
 76
     1
 98
        0
  0
POLYLINE
  5
AF
330
1F
100
AcDbEntity
  8
Print
 62
   179
420
  2301728
370
    35
100
AcDb2dPolyline
 66
     1
 10
0.0
 20
0.0
 30
0.0
  0
VERTEX
  5
B0
330
AF
100
AcDbEntity
  8
Print
 62
   179
420
  2301728
370
    35
100
AcDbVertex
100
AcDb2dVertex
 10
101.9527777522896
 20
-50.94779458361722
 30
0.0
  0
VERTEX
  5
B1
330
AF
100
AcDbEntity
  8
Print
 62
   179
420
  2301728
370
    35
100
AcDbVertex
100
AcDb2dVertex
 10
76.74449732239374
 20
-50.94779458361722
 30
0.0
  0
VERTEX
  5
B2
330
AF
100
AcDbEntity
  8
Print
 62
   179
420
  2301728
370
    35
100
AcDbVertex
100
AcDb2dVertex
 10
76.74449732239374
 20
-45.72985296165782
 30
0.0
  0
VERTEX
  5
B3
330
AF
100
AcDbEntity
  8
Print
 62
   179
420
  2301728
370
    35
100
AcDbVertex
100
AcDb2dVertex
 10
101.9527777522896
 20
-45.72985296165782
 30
0.0
  0
VERTEX
  5
B4
330
AF
100
AcDbEntity
  8
Print
 62
   179
420
  2301728
370
    35
100
AcDbVertex
100
AcDb2dVertex
 10
101.9527777522896
 20
-50.94779458361722
 30
0.0
  0
SEQEND
  5
B5
330
AF
100
AcDbEntity
  8
Print
370
    35
  0
POLYLINE
  5
B6
330
1F
100
AcDbEntity
  8
Print
 62
   179
420
  2301728
370
    35
100
AcDb2dPolyline
 66
     1
 10
0.0
 20
0.0
 30
0.0
  0
VERTEX
  5
B7
330
B6
100
AcDbEntity
  8
Print
 62
   179
420
  2301728
370
    35
100
AcDbVertex
100
AcDb2dVertex
 10
87.18038056631255
 20
-50.94779458361722
 30
0.0
  0
VERTEX
  5
B8
330
B6
100
AcDbEntity
  8
Print
 62
   179
420
  2301728
370
    35
100
AcDbVertex
100
AcDb2dVertex
 10
76.74449732239374
 20
-50.94779458361722
 30
0.0
  0
VERTEX
  5
B9
330
B6
100
AcDbEntity
  8
Print
 62
   179
420
  2301728
370
    35
100
AcDbVertex
100
AcDb2dVertex
 10
76.74449732239374
 20
-45.72985296165782
 30
0.0
  0
VERTEX
  5
BA
330
B6
100
AcDbEntity
  8
Print
 62
   179
420
  2301728
370
    35
100
AcDbVertex
100
AcDb2dVertex
 10
87.18038056631255
 20
-45.72985296165782
 30
0.0
  0
VERTEX
  5
BB
330
B6
100
AcDbEntity
  8
Print
 62
   179
420
  2301728
370
    35
100
AcDbVertex
100
AcDb2dVertex
 10
87.18038056631255
 20
-50.94779458361722
 30
0.0
  0
SEQEND
  5
BC
330
B6
100
AcDbEntity
  8
Print
370
    35
  0
HATCH
  5
BD
330
1F
100
AcDbEntity
  8
Print
 62
     9
420
 12303808
100
AcDbHatch
 10
0.0
 20
0.0
 30
0.0
210
0.0
220
0.0
230
1.0
  2
SOLID
 70
     1
 71
     0
 91
        1
 92
        1
 93
        4
 72
     1
 10
87.18038056631255
 20
-50.94779458361722
 11
76.74449732239374
 21
-50.94779458361722
 72
     1
 10
76.74449732239374
 20
-50.94779458361722
 11
76.74449732239374
 21
-45.72985296165782
 72
     1
 10
76.74449732239374
 20
-45.72985296165782
 11
87.18038056631255
 21
-45.72985296165782
 72
     1
 10
87.18038056631255
 20
-45.72985296165782
 11
87.18038056631255
 21
-50.94779458361722
 97
        0
 75
     2
 76
     1
 98
        0
  0
MTEXT
  5
BE
330
1F
100
AcDbEntity
  8
Print
 62
   179
420
  2301728
100
AcDbMText
 10
78.95332029276167
 20
-44.57436793590502
 30
0.0
 40
3.004133302361421
 41
0.0
 71
     7
 72
     1
  1
\fArial|b0|i0|c0|p34;\W1;10
 73
     1
 44
1.0
  0
MTEXT
  5
BF
330
1F
100
AcDbEntity
  8
Print
 62
   179
420
  2301728
100
AcDbMText
 10
100.0609035665646
 20
-44.57436793590502
 30
0.0
 40
3.004133302361421
 41
0.0
 71
     7
 72
     1
  1
\fArial|b0|i0|c0|p34;\W1;25
 73
     1
 44
1.0
  0
MTEXT
  5
C0
330
1F
100
AcDbEntity
  8
Print
 62
   179
420
  2301728
100
AcDbMText
 10
124.4204847236692
 20
-44.57436793590502
 30
0.0
 40
3.004133302361421
 41
0.0
 71
     7
 72
     1
  1
\fArial|b0|i0|c0|p34;\W1;50
 73
     1
 44
1.0
  0
MTEXT
  5
C1
330
1F
100
AcDbEntity
  8
Print
 62
   179
420
  2301728
100
AcDbMText
 10
77.76975773880409
 20
-49.84415824491744
 30
0.0
 40
1.734274275717029
 41
0.0
 71
     7
 72
     1
  1
\fArial|b0|i0|c0|p34;\W1;mm
 73
     1
 44
1.0
  0
POLYLINE
  5
C2
330
1F
100
AcDbEntity
  8
Print
 62
   179
420
  2301728
370
    35
100
AcDb2dPolyline
 66
     1
 10
0.0
 20
0.0
 30
0.0
  0
VERTEX
  5
C3
330
C2
100
AcDbEntity
  8
Print
 62
   179
420
  2301728
370
    35
100
AcDbVertex
100
AcDb2dVertex
 10
74.08987899623448
 20
-51.20204263042866
 30
0.0
  0
VERTEX
  5
C4
330
C2
100
AcDbEntity
  8
Print
 62
   179
420
  2301728
370
    35
100
AcDbVertex
100
AcDb2dVertex
 10
36.7838012603353
 20
-51.20204263042866
 30
0.0
  0
VERTEX
  5
C5
330
C2
100
AcDbEntity
  8
Print
 62
   179
420
  2301728
370
    35
100
AcDbVertex
100
AcDb2dVertex
 10
36.7838012603353
 20
-30.31718477974709
 30
0.0
  0
VERTEX
  5
C6
330
C2
100
AcDbEntity
  8
Print
 62
   179
420
  2301728
370
    35
100
AcDbVertex
100
AcDb2dVertex
 10
74.08987899623448
 20
-30.31718477974709
 30
0.0
  0
VERTEX
  5
C7
330
C2
100
AcDbEntity
  8
Print
 62
   179
420
  2301728
370
    35
100
AcDbVertex
100
AcDb2dVertex
 10
74.08987899623448
 20
-51.20204263042866
 30
0.0
  0
SEQEND
  5
C8
330
C2
100
AcDbEntity
  8
Print
370
    35
  0
MTEXT
  5
C9
330
1F
100
AcDbEntity
  8
Print
 62
   179
420
  2301728
100
AcDbMText
 10
76.71142440573534
 20
-34.77134873262661
 30
0.0
 40
3.004133302361421
 41
0.0
 71
     7
 72
     1
  1
\fArial|b0|i0|c0|p34;\W1;Date
 73
     1
 44
1.0
  0
POLYLINE
  5
CA
330
1F
100
AcDbEntity
  8
Print
 62
   179
420
  2301728
370
    35
100
AcDb2dPolyline
 66
     1
 10
0.0
 20
0.0
 30
0.0
  0
VERTEX
  5
CB
330
CA
100
AcDbEntity
  8
Print
 62
   179
420
  2301728
370
    35
100
AcDbVertex
100
AcDb2dVertex
 10
127.8654079541448
 20
-38.11395262719027
 30
0.0
  0
VERTEX
  5
CC
330
CA
100
AcDbEntity
  8
Print
 62
   179
420
  2301728
370
    35
100
AcDbVertex
100
AcDb2dVertex
 10
88.7310180442235
 20
-38.11395262719027
 30
0.0
  0
VERTEX
  5
CD
330
CA
100
AcDbEntity
  8
Print
 62
   179
420
  2301728
370
    35
100
AcDbVertex
100
AcDb2dVertex
 10
88.7310180442235
 20
-30.51166041988945
 30
0.0
  0
VERTEX
  5
CE
330
CA
100
AcDbEntity
  8
Print
 62
   179
420
  2301728
370
    35
100
AcDbVertex
100
AcDb2dVertex
 10
127.8654079541448
 20
-30.51166041988945
 30
0.0
  0
VERTEX
  5
CF
330
CA
100
AcDbEntity
  8
Print
 62
   179
420
  2301728
370
    35
100
AcDbVertex
100
AcDb2dVertex
 10
127.8654079541448
 20
-38.11395262719027
 30
0.0
  0
SEQEND
  5
D0
330
CA
100
AcDbEntity
  8
Print
370
    35
  0
ENDSEC
  0
SECTION
  2
OBJECTS
  0
DICTIONARY
  5
C
330
0
100
AcDbDictionary
281
     1
  3
ACAD_GROUP
350
D
  3
ACAD_IMAGE_DICT
350
A2
  3
ACAD_IMAGE_VARS
350
A4
  3
ACAD_LAYOUT
350
1A
  3
ACAD_MLINESTYLE
350
17
  3
ACAD_PLOTSETTINGS
350
19
  3
ACAD_PLOTSTYLENAME
350
E
  3
ACAD_TABLESTYLE
350
D1
  3
ACAD_VISUALSTYLE
350
2A
  0
IMAGEDEF_REACTOR
  5
A6
330
A5
100
AcDbRasterImageDefReactor
 90
        2
330
A5
  0
DICTIONARY
  5
D
102
{ACAD_REACTORS
330
C
102
}
330
C
100
AcDbDictionary
281
     1
  0
DICTIONARY
  5
A2
102
{ACAD_REACTORS
330
C
102
}
330
C
100
AcDbDictionary
281
     1
  3
/Users/andrewdavies_mbp/Andy's Documents/Equipment & Facilities/Survey/Survey_Scale_Badges/Survey_Colour_Scale_Note_Bar_LC_1.png
350
A3
  0
RASTERVARIABLES
  5
A4
102
{ACAD_REACTORS
330
C
102
}
330
C
100
AcDbRasterVariables
 90
        0
 70
     0
 71
     1
 72
     0
  0
DICTIONARY
  5
1A
102
{ACAD_REACTORS
330
C
102
}
330
C
100
AcDbDictionary
281
     1
  3
Layout1
350
1E
  3
Layout2
350
26
  3
Model
350
22
  0
DICTIONARY
  5
17
102
{ACAD_REACTORS
330
C
102
}
330
C
100
AcDbDictionary
281
     1
  3
Standard
350
18
  0
DICTIONARY
  5
19
102
{ACAD_REACTORS
330
C
102
}
330
C
100
AcDbDictionary
281
     1
  0
ACDBDICTIONARYWDFLT
  5
E
102
{ACAD_REACTORS
330
C
102
}
330
C
100
AcDbDictionary
281
     1
  3
Normal
350
F
100
AcDbDictionaryWithDefault
340
F
  0
DICTIONARY
  5
D1
102
{ACAD_REACTORS
330
C
102
}
330
C
100
AcDbDictionary
281
     1
  0
DICTIONARY
  5
2A
102
{ACAD_REACTORS
330
C
102
}
330
C
100
AcDbDictionary
281
     1
  3
2dWireframe
350
2F
  3
3D Hidden
350
31
  3
3dWireframe
350
30
  3
Basic
350
32
  3
Brighten
350
36
  3
ColorChange
350
3A
  3
Conceptual
350
34
  3
Dim
350
35
  3
Facepattern
350
39
  3
Flat
350
2B
  3
FlatWithEdges
350
2C
  3
Gouraud
350
2D
  3
GouraudWithEdges
350
2E
  3
Linepattern
350
38
  3
Realistic
350
33
  3
Thicken
350
37
  0
IMAGEDEF
  5
A3
102
{ACAD_REACTORS
330
A2
330
A6
102
}
330
A2
100
AcDbRasterImageDef
 90
        0
  1
/Users/andrewdavies_mbp/Andy's Documents/Equipment & Facilities/Survey/Survey_Scale_Badges/Survey_Colour_Scale_Note_Bar_LC_1.png
 10
1137.0
 20
375.0
 11
0.3527777777777777
 21
0.3527777777777777
280
     1
281
     5
  0
LAYOUT
  5
1E
102
{ACAD_REACTORS
330
1A
102
}
330
1A
100
AcDbPlotSettings
  1

  2
none_device
  4

  6

 40
0.0
 41
0.0
 42
0.0
 43
0.0
 44
0.0
 45
0.0
 46
0.0
 47
0.0
 48
0.0
 49
0.0
140
0.0
141
0.0
142
1.0
143
1.0
 70
   688
 72
     0
 73
     0
 74
     5
  7

 75
    16
 76
     0
 77
     2
 78
   300
147
1.0
148
0.0
149
0.0
100
AcDbLayout
  1
Layout1
 70
     1
 71
     1
 10
0.0
 20
0.0
 11
12.0
 21
9.0
 12
0.0
 22
0.0
 32
0.0
 14
1.000000000000000E+20
 24
1.000000000000000E+20
 34
1.000000000000000E+20
 15
-1.000000000000000E+20
 25
-1.000000000000000E+20
 35
-1.000000000000000E+20
146
0.0
 13
0.0
 23
0.0
 33
0.0
 16
1.0
 26
0.0
 36
0.0
 17
0.0
 27
1.0
 37
0.0
 76
     0
330
1B
  0
LAYOUT
  5
26
102
{ACAD_REACTORS
330
1A
102
}
330
1A
100
AcDbPlotSettings
  1

  2
none_device
  4

  6

 40
0.0
 41
0.0
 42
0.0
 43
0.0
 44
0.0
 45
0.0
 46
0.0
 47
0.0
 48
0.0
 49
0.0
140
0.0
141
0.0
142
1.0
143
1.0
 70
   688
 72
     0
 73
     0
 74
     5
  7

 75
    16
 76
     0
 77
     2
 78
   300
147
1.0
148
0.0
149
0.0
100
AcDbLayout
  1
Layout2
 70
     1
 71
     2
 10
0.0
 20
0.0
 11
0.0
 21
0.0
 12
0.0
 22
0.0
 32
0.0
 14
0.0
 24
0.0
 34
0.0
 15
0.0
 25
0.0
 35
0.0
146
0.0
 13
0.0
 23
0.0
 33
0.0
 16
1.0
 26
0.0
 36
0.0
 17
0.0
 27
1.0
 37
0.0
 76
     0
330
23
  0
LAYOUT
  5
22
102
{ACAD_REACTORS
330
1A
102
}
330
1A
100
AcDbPlotSettings
  1

  2
none_device
  4

  6

 40
0.0
 41
0.0
 42
0.0
 43
0.0
 44
0.0
 45
0.0
 46
0.0
 47
0.0
 48
0.0
 49
0.0
140
0.0
141
0.0
142
1.0
143
1.0
 70
  1712
 72
     0
 73
     0
 74
     0
  7

 75
     0
 76
     0
 77
     2
 78
   300
147
1.0
148
0.0
149
0.0
100
AcDbLayout
  1
Model
 70
     1
 71
     0
 10
0.0
 20
0.0
 11
12.0
 21
9.0
 12
0.0
 22
0.0
 32
0.0
 14
1.000000000000000E+20
 24
1.000000000000000E+20
 34
1.000000000000000E+20
 15
-1.000000000000000E+20
 25
-1.000000000000000E+20
 35
-1.000000000000000E+20
146
0.0
 13
0.0
 23
0.0
 33
0.0
 16
1.0
 26
0.0
 36
0.0
 17
0.0
 27
1.0
 37
0.0
 76
     0
330
1F
331
29
  0
MLINESTYLE
  5
18
102
{ACAD_REACTORS
330
17
102
}
330
17
100
AcDbMlineStyle
  2
Standard
 70
     0
  3

 62
   256
 51
90.0
 52
90.0
 71
     2
 49
0.5
 62
   256
  6
BYLAYER
 49
-0.5
 62
   256
  6
BYLAYER
  0
ACDBPLACEHOLDER
  5
F
102
{ACAD_REACTORS
330
E
102
}
330
E
  0
VISUALSTYLE
  5
2F
102
{ACAD_REACTORS
330
2A
102
}
330
2A
100
AcDbVisualStyle
  2
2dWireframe
 70
     4
 71
     0
 72
     2
 73
     0
 90
        0
 40
-0.6
 41
-30.0
 62
     5
 63
     7
421
 16777215
 74
     1
 91
        4
 64
     7
 65
   257
 75
     1
175
     1
 42
1.0
 92
        0
 66
   257
 43
1.0
 76
     1
 77
     6
 78
     2
 67
     7
 79
     5
170
     0
171
     0
290
     0
174
     0
 93
        1
 44
0.0
173
     0
291
     0
 45
0.0
1001
ACAD
1000
AcDbSavedByObjectVersion
1070
     0
  0
VISUALSTYLE
  5
31
102
{ACAD_REACTORS
330
2A
102
}
330
2A
100
AcDbVisualStyle
  2
3D Hidden
 70
     6
 71
     1
 72
     2
 73
     2
 90
        0
 40
-0.6
 41
-30.0
 62
     5
 63
     7
421
 16777215
 74
     2
 91
        2
 64
     7
 65
   257
 75
     2
175
     1
 42
40.0
 92
        0
 66
   257
 43
1.0
 76
     1
 77
     6
 78
     2
 67
     7
 79
     3
170
     0
171
     0
290
     0
174
     0
 93
        1
 44
0.0
173
     0
291
     0
 45
0.0
1001
ACAD
1000
AcDbSavedByObjectVersion
1070
     0
  0
VISUALSTYLE
  5
30
102
{ACAD_REACTORS
330
2A
102
}
330
2A
100
AcDbVisualStyle
  2
3dWireframe
 70
     5
 71
     0
 72
     2
 73
     0
 90
        0
 40
-0.6
 41
-30.0
 62
     5
 63
     7
421
 16777215
 74
     1
 91
        4
 64
     7
 65
   257
 75
     1
175
     1
 42
1.0
 92
        0
 66
   257
 43
1.0
 76
     1
 77
     6
 78
     2
 67
     7
 79
     5
170
     0
171
     0
290
     0
174
     0
 93
        1
 44
0.0
173
     0
291
     0
 45
0.0
1001
ACAD
1000
AcDbSavedByObjectVersion
1070
     0
  0
VISUALSTYLE
  5
32
102
{ACAD_REACTORS
330
2A
102
}
330
2A
100
AcDbVisualStyle
  2
Basic
 70
     7
 71
     1
 72
     0
 73
     1
 90
        0
 40
-0.6
 41
-30.0
 62
     5
 63
     7
421
 16777215
 74
     0
 91
        4
 64
     7
 65
   257
 75
     1
175
     1
 42
1.0
 92
        8
 66
     7
 43
1.0
 76
     1
 77
     6
 78
     2
 67
     7
 79
     5
170
     0
171
     0
290
     0
174
     0
 93
        1
 44
0.0
173
     0
291
     1
 45
0.0
1001
ACAD
1000
AcDbSavedByObjectVersion
1070
     0
  0
VISUALSTYLE
  5
36
102
{ACAD_REACTORS
330
2A
102
}
330
2A
100
AcDbVisualStyle
  2
Brighten
 70
    12
 71
     2
 72
     2
 73
     0
 90
        0
 40
-0.6
 41
-30.0
 62
     5
 63
     7
421
 16777215
 74
     1
 91
        4
 64
     7
 65
   257
 75
     1
175
     1
 42
1.0
 92
        8
 66
     7
 43
1.0
 76
     1
 77
     6
 78
     2
 67
     7
 79
     5
170
     0
171
     0
290
     0
174
     0
 93
        1
 44
50.0
173
     0
291
     1
 45
0.0
1001
ACAD
1000
AcDbSavedByObjectVersion
1070
     0
  0
VISUALSTYLE
  5
3A
102
{ACAD_REACTORS
330
2A
102
}
330
2A
100
AcDbVisualStyle
  2
ColorChange
 70
    16
 71
     2
 72
     2
 73
     3
 90
        0
 40
-0.6
 41
-30.0
 62
     5
 63
     8
421
  8421504
 74
     1
 91
        4
 64
     7
 65
   257
 75
     1
175
     1
 42
1.0
 92
        8
 66
     8
424
  8421504
 43
1.0
 76
     1
 77
     6
 78
     2
 67
     7
 79
     5
170
     0
171
     0
290
     0
174
     0
 93
        1
 44
0.0
173
     0
291
     1
 45
0.0
1001
ACAD
1000
AcDbSavedByObjectVersion
1070
     0
  0
VISUALSTYLE
  5
34
102
{ACAD_REACTORS
330
2A
102
}
330
2A
100
AcDbVisualStyle
  2
Conceptual
 70
     9
 71
     3
 72
     2
 73
     0
 90
        0
 40
-0.6
 41
-30.0
 62
     5
 63
     7
421
 16777215
 74
     2
 91
        2
 64
     7
 65
   257
 75
     1
175
     1
 42
40.0
 92
        8
 66
     7
 43
1.0
 76
     1
 77
     6
 78
     2
 67
     7
 79
     3
170
     0
171
     0
290
     0
174
     0
 93
        1
 44
0.0
173
     0
291
     0
 45
0.0
1001
ACAD
1000
AcDbSavedByObjectVersion
1070
     0
  0
VISUALSTYLE
  5
35
102
{ACAD_REACTORS
330
2A
102
}
330
2A
100
AcDbVisualStyle
  2
Dim
 70
    11
 71
     2
 72
     2
 73
     0
 90
        0
 40
-0.6
 41
-30.0
 62
     5
 63
     7
421
 16777215
 74
     1
 91
        4
 64
     7
 65
   257
 75
     1
175
     1
 42
1.0
 92
        8
 66
     7
 43
1.0
 76
     1
 77
     6
 78
     2
 67
     7
 79
     5
170
     0
171
     0
290
     0
174
     0
 93
        1
 44
-50.0
173
     0
291
     1
 45
0.0
1001
ACAD
1000
AcDbSavedByObjectVersion
1070
     0
  0
VISUALSTYLE
  5
39
102
{ACAD_REACTORS
330
2A
102
}
330
2A
100
AcDbVisualStyle
  2
Facepattern
 70
    15
 71
     2
 72
     2
 73
     0
 90
        0
 40
-0.6
 41
-30.0
 62
     5
 63
     7
421
 16777215
 74
     1
 91
        4
 64
     7
 65
   257
 75
     1
175
     1
 42
1.0
 92
        8
 66
     7
 43
1.0
 76
     1
 77
     6
 78
     2
 67
     7
 79
     5
170
     0
171
     0
290
     0
174
     0
 93
        1
 44
0.0
173
     0
291
     1
 45
0.0
1001
ACAD
1000
AcDbSavedByObjectVersion
1070
     0
  0
VISUALSTYLE
  5
2B
102
{ACAD_REACTORS
330
2A
102
}
330
2A
100
AcDbVisualStyle
  2
Flat
 70
     0
 71
     2
 72
     1
 73
     1
 90
        2
 40
-0.6
 41
30.0
 62
     5
 63
     7
421
 16777215
 74
     0
 91
        4
 64
     7
 65
   257
 75
     1
175
     1
 42
1.0
 92
        8
 66
     7
 43
1.0
 76
     1
 77
     6
 78
     2
 67
     7
 79
     5
170
     0
171
     0
290
     0
174
     0
 93
       13
 44
0.0
173
     0
291
     1
 45
0.0
1001
ACAD
1000
AcDbSavedByObjectVersion
1070
     0
  0
VISUALSTYLE
  5
2C
102
{ACAD_REACTORS
330
2A
102
}
330
2A
100
AcDbVisualStyle
  2
FlatWithEdges
 70
     1
 71
     2
 72
     1
 73
     1
 90
        2
 40
-0.6
 41
30.0
 62
     5
 63
     7
421
 16777215
 74
     1
 91
        4
 64
     7
 65
   257
 75
     1
175
     1
 42
1.0
 92
        0
 66
   257
 43
1.0
 76
     1
 77
     6
 78
     2
 67
     7
 79
     5
170
     0
171
     0
290
     0
174
     0
 93
       13
 44
0.0
173
     0
291
     1
 45
0.0
1001
ACAD
1000
AcDbSavedByObjectVersion
1070
     0
  0
VISUALSTYLE
  5
2D
102
{ACAD_REACTORS
330
2A
102
}
330
2A
100
AcDbVisualStyle
  2
Gouraud
 70
     2
 71
     2
 72
     2
 73
     1
 90
        2
 40
-0.6
 41
30.0
 62
     5
 63
     7
421
 16777215
 74
     0
 91
        4
 64
     7
 65
   257
 75
     1
175
     1
 42
1.0
 92
        0
 66
     7
 43
1.0
 76
     1
 77
     6
 78
     2
 67
     7
 79
     5
170
     0
171
     0
290
     0
174
     0
 93
       13
 44
0.0
173
     0
291
     1
 45
0.0
1001
ACAD
1000
AcDbSavedByObjectVersion
1070
     0
  0
VISUALSTYLE
  5
2E
102
{ACAD_REACTORS
330
2A
102
}
330
2A
100
AcDbVisualStyle
  2
GouraudWithEdges
 70
     3
 71
     2
 72
     2
 73
     1
 90
        2
 40
-0.6
 41
30.0
 62
     5
 63
     7
421
 16777215
 74
     1
 91
        4
 64
     7
 65
   257
 75
     1
175
     1
 42
1.0
 92
        0
 66
   257
 43
1.0
 76
     1
 77
     6
 78
     2
 67
     7
 79
     5
170
     0
171
     0
290
     0
174
     0
 93
       13
 44
0.0
173
     0
291
     1
 45
0.0
1001
ACAD
1000
AcDbSavedByObjectVersion
1070
     0
  0
VISUALSTYLE
  5
38
102
{ACAD_REACTORS
330
2A
102
}
330
2A
100
AcDbVisualStyle
  2
Linepattern
 70
    14
 71
     2
 72
     2
 73
     0
 90
        0
 40
-0.6
 41
-30.0
 62
     5
 63
     7
421
 16777215
 74
     1
 91
        4
 64
     7
 65
   257
 75
     7
175
     7
 42
1.0
 92
        8
 66
     7
 43
1.0
 76
     1
 77
     6
 78
     2
 67
     7
 79
     5
170
     0
171
     0
290
     0
174
     0
 93
        1
 44
0.0
173
     0
291
     1
 45
0.0
1001
ACAD
1000
AcDbSavedByObjectVersion
1070
     0
  0
VISUALSTYLE
  5
33
102
{ACAD_REACTORS
330
2A
102
}
330
2A
100
AcDbVisualStyle
  2
Realistic
 70
     8
 71
     2
 72
     2
 73
     0
 90
        0
 40
-0.6
 41
-30.0
 62
     5
 63
     7
421
 16777215
 74
     1
 91
        0
 64
     7
 65
   257
 75
     1
175
     1
 42
1.0
 92
        8
 66
     8
424
  7895160
 43
1.0
 76
     1
 77
     6
 78
     2
 67
     7
 79
     5
170
     0
171
     0
290
     0
174
     0
 93
       13
 44
0.0
173
     0
291
     0
 45
0.0
1001
ACAD
1000
AcDbSavedByObjectVersion
1070
     0
  0
VISUALSTYLE
  5
37
102
{ACAD_REACTORS
330
2A
102
}
330
2A
100
AcDbVisualStyle
  2
Thicken
 70
    13
 71
     2
 72
     2
 73
     0
 90
        0
 40
-0.6
 41
-30.0
 62
     5
 63
     7
421
 16777215
 74
     1
 91
        4
 64
     7
 65
   257
 75
     1
175
     1
 42
1.0
 92
       12
 66
     7
 43
1.0
 76
     1
 77
     6
 78
     2
 67
     7
 79
     5
170
     0
171
     0
290
     0
174
     0
 93
        1
 44
0.0
173
     0
291
     1
 45
0.0
1001
ACAD
1000
AcDbSavedByObjectVersion
1070
     0
  0
ENDSEC
  0
EOF
